<?xml version="1.0" encoding="UTF-8" standalone="no"?>
<svg
   width="704.36224"
   height="635"
   viewBox="0 0 704.36225 635"
   role="img"
   artist="Katerina Limpitsouni"
   source="https://undraw.co/"
   version="1.1"
   id="svg33"
   xmlns="http://www.w3.org/2000/svg"
   xmlns:svg="http://www.w3.org/2000/svg">
  <defs
     id="defs33" />
  <g
     id="g33"
     transform="translate(203.18142,-182.86327)">
    <g
       id="g34"
       transform="matrix(2.3285852,0,0,2.3285852,-196.41596,-661.63496)">
      <path
         d="M 186.20539,521.82329 H 76.432483 A 14.056607,14.056607 0 0 1 62.391763,507.78257 V 378.86323 a 14.056607,14.056607 0 0 1 14.04072,-14.04072 H 178.55824 l 21.68787,17.28664 v 125.67342 a 14.056607,14.056607 0 0 1 -14.04072,14.04072 z"
         fill="#e6e6e6"
         id="path1"
         style="stroke-width:0.425476" />
      <path
         d="m 76.432437,368.86453 a 10.009982,10.009982 0 0 0 -9.998695,9.9987 v 128.91934 a 10.009982,10.009982 0 0 0 9.998695,9.99869 H 186.20534 a 10.009982,10.009982 0 0 0 9.99869,-9.99869 V 384.05641 l -19.05971,-15.19188 z"
         fill="#ffffff"
         id="path2"
         style="stroke-width:0.425476" />
      <path
         d="m 164.85456,406.35082 h -49.97807 a 2.338155,2.338155 0 1 1 0,-4.67631 h 49.97807 a 2.338155,2.338155 0 1 1 0,4.67631 z"
         fill="#cccccc"
         id="path3"
         style="stroke-width:0.425476" />
      <path
         d="m 174.49945,414.24209 h -59.62296 a 2.338155,2.338155 0 1 1 0,-4.67631 h 59.62296 a 2.338155,2.338155 0 1 1 0,4.67631 z"
         fill="#cccccc"
         id="path4"
         style="stroke-width:0.425476" />
      <path
         d="m 164.85456,441.71541 h -49.97807 a 2.338155,2.338155 0 1 1 0,-4.67631 h 49.97807 a 2.338155,2.338155 0 1 1 0,4.67631 z"
         fill="#cccccc"
         id="path5"
         style="stroke-width:0.425476" />
      <path
         d="m 174.49945,449.60669 h -59.62296 a 2.338155,2.338155 0 1 1 0,-4.67631 h 59.62296 a 2.338155,2.338155 0 1 1 0,4.67631 z"
         fill="#cccccc"
         id="path6"
         style="stroke-width:0.425476" />
      <path
         d="m 164.85456,477.08001 h -49.97807 a 2.338155,2.338155 0 1 1 0,-4.67631 h 49.97807 a 2.338155,2.338155 0 1 1 0,4.67631 z"
         fill="#cccccc"
         id="path7"
         style="stroke-width:0.425476" />
      <path
         d="m 174.49945,484.97129 h -59.62296 a 2.338155,2.338155 0 0 1 0,-4.67631 h 59.62296 a 2.338155,2.338155 0 1 1 0,4.67631 z"
         fill="#cccccc"
         id="path8"
         style="stroke-width:0.425476" />
      <circle
         id="b6fa6563-5e20-492f-ac6f-1d924df782c1"
         data-name="Ellipse 44"
         cx="94.064354"
         cy="407.95828"
         r="8.2640905"
         fill="#6c63ff"
         style="fill:#3c6839;fill-opacity:1;stroke-width:0.425476" />
      <path
         id="bcd12bac-9f30-4deb-ae50-48c1cb737c9b-455"
         data-name="Path 395"
         d="m 93.245429,411.1108 a 0.85710512,0.85710512 0 0 1 -0.515639,-0.17136 l -0.0092,-0.007 -1.942172,-1.4857 a 0.86308758,0.86308758 0 0 1 1.050238,-1.36992 l 1.257985,0.96468 2.972679,-3.87819 a 0.86272141,0.86272141 0 0 1 1.209579,-0.15977 l 2.51e-4,1.9e-4 -0.01845,0.0256 0.01895,-0.0256 a 0.86376383,0.86376383 0 0 1 0.159583,1.20982 l -3.496522,4.55956 a 0.86323624,0.86323624 0 0 1 -0.686494,0.33659 z"
         fill="#ffffff"
         style="stroke-width:0.425476" />
      <circle
         id="b95850ed-3210-4af9-b38f-3ce1288a2453"
         data-name="Ellipse 44"
         cx="94.915314"
         cy="443.32291"
         r="8.2640905"
         fill="#cccccc"
         style="stroke-width:0.425476" />
      <circle
         id="b1885188-7f5c-4441-a082-07b02d322a90"
         data-name="Ellipse 44"
         cx="94.064354"
         cy="478.6875"
         r="8.2640905"
         fill="#cccccc"
         style="stroke-width:0.425476" />
      <path
         d="m 199.82394,382.66548 h -16.98885 a 4.6763086,4.6763086 0 0 1 -4.67631,-4.67631 v -12.54773 a 0.29226823,0.29226823 0 0 1 0.47376,-0.22909 l 21.37287,16.93176 a 0.29226823,0.29226823 0 0 1 -0.18147,0.52137 z"
         fill="#e6e6e6"
         id="path9"
         style="stroke-width:0.425476" />
      <path
         d="m 84.82095,545.97852 -64.947214,13.68973 a 7.2412546,7.2412546 0 0 1 -8.569409,-5.58577 L 0.15947966,501.20879 A 7.2412504,7.2412504 0 0 1 5.745227,492.63937 l 64.947214,-13.68973 a 7.2412504,7.2412504 0 0 1 8.569413,5.58575 l 11.144856,52.87372 a 7.2412461,7.2412461 0 0 1 -5.58576,8.56941 z"
         fill="#ffffff"
         id="path10"
         style="stroke-width:0.425476" />
      <path
         d="m 84.82095,545.97852 -64.947214,13.68973 a 7.2412546,7.2412546 0 0 1 -8.569409,-5.58577 L 0.15947966,501.20879 A 7.2412504,7.2412504 0 0 1 5.745227,492.63937 l 64.947214,-13.68973 a 7.2412504,7.2412504 0 0 1 8.569413,5.58575 l 11.144856,52.87372 a 7.2412461,7.2412461 0 0 1 -5.58576,8.56941 z M 5.9207403,493.47205 a 6.3893786,6.3893786 0 0 0 -4.92860765,7.56124 L 12.13698,553.90699 a 6.3893786,6.3893786 0 0 0 7.561247,4.9286 l 64.947214,-13.68973 a 6.3893786,6.3893786 0 0 0 4.928612,-7.56123 L 78.429206,484.71094 a 6.3893786,6.3893786 0 0 0 -7.561243,-4.92861 z"
         fill="#3f3d56"
         id="path11"
         style="stroke-width:0.425476" />
      <path
         id="b3d30341-bfe2-418c-85c9-1bd82b5f5e0c-456"
         data-name="Path 411"
         d="m 66.657104,496.38363 -32.77801,6.90903 a 1.1619249,1.1619249 0 0 1 -1.373995,-0.79269 1.1192751,1.1192751 0 0 1 0.850353,-1.38455 l 33.366001,-7.03297 c 1.302788,0.73419 0.891024,2.0998 -0.06475,2.30126 z"
         fill="#cccccc"
         style="stroke-width:0.425476" />
      <path
         id="ba7e3b3b-1e3b-4053-b678-ceb2b593f6ee-457"
         data-name="Path 412"
         d="m 67.868997,502.13309 -32.77801,6.90904 a 1.1619334,1.1619334 0 0 1 -1.373999,-0.7927 1.1192794,1.1192794 0 0 1 0.850353,-1.38454 l 33.366001,-7.03297 c 1.302809,0.73419 0.891028,2.0998 -0.06475,2.30126 z"
         fill="#cccccc"
         style="stroke-width:0.425476" />
      <path
         id="f6076b75-2d9c-4839-8b09-e00257d358cf-458"
         data-name="Path 413"
         d="m 28.695158,513.80929 -10.003532,2.10857 a 1.260261,1.260261 0 0 1 -1.491588,-0.97225 l -2.488284,-11.80499 a 1.260261,1.260261 0 0 1 0.972256,-1.49159 l 10.003528,-2.10857 a 1.2606865,1.2606865 0 0 1 1.491593,0.97226 l 2.488275,11.805 a 1.260261,1.260261 0 0 1 -0.972252,1.49159 z"
         fill="#cccccc"
         style="stroke-width:0.425476" />
      <path
         id="acc57b87-b2e4-43d3-aa96-a8e2462d330c-459"
         data-name="Path 414"
         d="m 70.255009,513.9253 -50.025252,10.54445 a 1.1619206,1.1619206 0 0 1 -1.373986,-0.79269 1.1192581,1.1192581 0 0 1 0.850348,-1.38455 l 50.613643,-10.66847 c 1.302788,0.73419 0.891024,2.0998 -0.06475,2.30126 z"
         fill="#cccccc"
         style="stroke-width:0.425476" />
      <path
         id="e5415755-f7b6-4857-8e09-1413b7f93e97-460"
         data-name="Path 415"
         d="m 71.467251,519.67647 -50.025248,10.54444 a 1.1619164,1.1619164 0 0 1 -1.373986,-0.79268 1.1192624,1.1192624 0 0 1 0.850348,-1.38456 L 71.532008,517.3752 c 1.302809,0.7342 0.891024,2.09981 -0.06476,2.30127 z"
         fill="#cccccc"
         style="stroke-width:0.425476" />
      <path
         id="afce3f4d-2700-4434-8207-f3b7a686e1c3-461"
         data-name="Path 416"
         d="m 72.678705,525.42387 -50.025251,10.54445 a 1.1619206,1.1619206 0 0 1 -1.373987,-0.79269 1.1192666,1.1192666 0 0 1 0.850349,-1.38455 l 50.613643,-10.66847 c 1.302808,0.73419 0.891028,2.0998 -0.06475,2.30126 z"
         fill="#cccccc"
         style="stroke-width:0.425476" />
      <path
         id="abb1f551-863d-408b-9aec-d87e952e72e4-462"
         data-name="Path 417"
         d="M 73.890858,531.17461 23.86561,541.71906 a 1.1619206,1.1619206 0 0 1 -1.373986,-0.79269 1.1192581,1.1192581 0 0 1 0.850348,-1.38455 l 50.613643,-10.66847 c 1.302788,0.73419 0.891024,2.0998 -0.06476,2.30126 z"
         fill="#cccccc"
         style="stroke-width:0.425476" />
      <path
         id="bbed1b24-9150-4534-8e9c-e5347be55157-463"
         data-name="Path 418"
         d="M 75.102402,536.92245 25.07715,547.4669 a 1.1619249,1.1619249 0 0 1 -1.373987,-0.7927 1.1192666,1.1192666 0 0 1 0.850353,-1.38454 l 50.613643,-10.66847 c 1.302809,0.73419 0.891024,2.0998 -0.06476,2.30126 z"
         fill="#cccccc"
         style="stroke-width:0.425476" />
      <path
         d="m 83.932968,510.59955 a 4.4782111,4.4782111 0 0 0 -0.290715,0.64251 l -20.479612,5.08204 -3.562705,-3.68571 -6.265139,4.64973 5.67297,7.13777 a 3.4038109,3.4038109 0 0 0 3.95225,1.03305 l 22.222341,-9.08061 a 4.466268,4.466268 0 1 0 -1.249369,-5.77877 z"
         fill="#a0616a"
         id="path12"
         style="stroke-width:0.425476" />
      <path
         d="m 14.028631,555.82442 a 4.570765,4.570765 0 0 0 2.713794,-6.462 l 14.093569,-39.17245 -9.78751,-1.73453 -10.775886,39.05065 a 4.5955319,4.5955319 0 0 0 3.756033,8.31832 z"
         fill="#a0616a"
         id="path13"
         style="stroke-width:0.425476" />
      <path
         d="m 29.046091,517.14351 -9.663644,-3.70881 a 2.0494729,2.0494729 0 0 1 -1.050816,-2.92004 l 5.06955,-8.98849 a 5.6917505,5.6917505 0 0 1 10.615636,4.10991 l -2.2361,10.0402 a 2.0494686,2.0494686 0 0 1 -2.734626,1.46725 z"
         fill="#6c63ff"
         id="path14"
         style="fill:#3c6839;fill-opacity:1;stroke-width:0.425476" />
      <polygon
         points="137.617,574.477 119.523,574.478 119.525,621.766 131.785,621.765 "
         fill="#a0616a"
         id="polygon14"
         transform="matrix(0.42547637,0,0,0.42547637,0.00313837,364.82251)" />
      <path
         d="m 49.527536,627.66621 10.272617,-4.3e-4 h 4.25e-4 a 6.5464006,6.5464006 0 0 1 6.54658,6.54648 v 0.21274 l -16.819302,6.2e-4 z"
         fill="#2f2e41"
         id="path15"
         style="stroke-width:0.425476" />
      <polygon
         points="68.617,574.477 50.523,574.478 50.525,621.766 62.785,621.765 "
         fill="#a0616a"
         id="polygon15"
         transform="matrix(0.42547637,0,0,0.42547637,0.00313837,364.82251)" />
      <path
         d="m 20.169667,627.66621 10.272616,-4.3e-4 h 4.26e-4 a 6.5464006,6.5464006 0 0 1 6.546579,6.54648 v 0.21274 l -16.819302,6.2e-4 z"
         fill="#2f2e41"
         id="path16"
         style="stroke-width:0.425476" />
      <path
         d="m 26.968682,621.27115 h -6.601117 a 1.9148181,1.9148181 0 0 1 -1.912461,-2.00564 l 3.135497,-67.36652 0.197574,-0.005 31.876345,-0.83101 6.237662,67.40518 a 1.9147373,1.9147373 0 0 1 -1.753324,2.08957 l -7.414466,0.59292 a 1.9155967,1.9155967 0 0 1 -2.028284,-1.52405 l -9.484001,-47.98369 a 0.61853201,0.61853201 0 0 0 -0.625024,-0.51024 h -0.0026 a 0.61885112,0.61885112 0 0 0 -0.62388,0.51522 l -9.123332,48.07883 a 1.9186942,1.9186942 0 0 1 -1.878593,1.54483 z"
         fill="#2f2e41"
         id="path17"
         style="stroke-width:0.425476" />
      <circle
         cx="39.060596"
         cy="481.36649"
         r="10.450137"
         fill="#a0616a"
         id="circle17"
         style="stroke-width:0.425476" />
      <path
         d="m 35.556531,559.79357 c -4.980754,0 -10.096652,-1.30925 -14.337703,-5.18009 a 1.9366961,1.9366961 0 0 1 -0.625229,-1.63792 c 0.453937,-4.07859 2.655904,-25.13757 1.415832,-39.2049 a 17.027385,17.027385 0 0 1 5.512298,-14.17036 16.848081,16.848081 0 0 1 14.450096,-4.18414 h 1.02e-4 c 0.130158,0.0233 0.260213,0.0478 0.390473,0.0727 8.366384,1.61922 14.179395,9.36214 13.521639,18.01086 -0.959816,12.6197 -1.820222,29.68944 -0.469212,39.34285 a 1.9114994,1.9114994 0 0 1 -1.027436,1.97281 c -3.074003,1.55316 -10.775686,4.97817 -18.83086,4.97817 z"
         fill="#6c63ff"
         id="path18"
         style="fill:#3c6839;fill-opacity:1;stroke-width:0.425476" />
      <path
         d="m 49.192725,517.89545 a 2.0472476,2.0472476 0 0 1 -0.897538,-1.45146 l -1.273153,-10.2071 A 5.6917548,5.6917548 0 0 1 57.979812,503.153 l 4.193614,9.42903 a 2.0494643,2.0494643 0 0 1 -1.323198,2.80716 l -9.972004,2.77496 a 2.0471498,2.0471498 0 0 1 -1.685499,-0.2687 z"
         fill="#6c63ff"
         id="path19"
         style="fill:#3c6839;fill-opacity:1;stroke-width:0.425476" />
      <path
         d="m 35.412515,491.66908 a 7.4874693,7.4874693 0 0 1 -2.892048,-0.52325 c -0.404793,-0.156 -0.824998,-0.28422 -1.229043,-0.44032 -3.568309,-1.37861 -5.918887,-5.17885 -6.003076,-9.00329 -0.08419,-3.82443 1.896348,-7.53641 4.837292,-9.98269 2.940943,-2.44628 6.750182,-3.70221 10.564523,-3.99264 4.108659,-0.31284 8.73514,0.7291 11.03101,4.15078 0.611125,0.91079 1.03852,2.01584 0.676406,3.11553 a 1.9936036,1.9936036 0 0 1 -0.561748,0.86287 c -1.025305,0.91222 -2.047486,0.22632 -3.092699,0.16572 -1.436633,-0.0833 -2.726984,1.07957 -3.190757,2.44184 -0.463774,1.36226 -0.259622,2.86201 0.114844,4.25148 a 10.620767,10.620767 0 0 1 0.535356,2.58514 2.5989458,2.5989458 0 0 1 -1.076855,2.28845 c -0.897721,0.54264 -2.076657,0.22858 -2.974906,-0.31318 -0.898248,-0.54177 -1.674394,-1.29504 -2.644663,-1.69371 -0.970269,-0.39866 -2.273826,-0.31023 -2.838565,0.57375 a 3.1395901,3.1395901 0 0 0 -0.358864,1.03613 c -0.506283,2.30661 -0.389919,2.17078 -0.896202,4.47738 z"
         fill="#2f2e41"
         id="path20"
         style="stroke-width:0.425476" />
      <path
         d="M 81.553274,635 H 0.71276487 a 0.42547637,0.42547637 0 0 1 0,-0.85095 H 81.553274 a 0.42547637,0.42547637 0 1 1 0,0.85095 z"
         fill="#cccccc"
         id="path21"
         style="stroke-width:0.425476" />
      <path
         d="m 288.48128,547.1942 -57.88926,32.47124 a 7.2412504,7.2412504 0 0 1 -9.84698,-2.76992 l -26.43492,-47.1278 a 7.2412546,7.2412546 0 0 1 2.7699,-9.84698 l 57.88927,-32.47124 a 7.2412504,7.2412504 0 0 1 9.84698,2.76991 l 26.43494,47.12781 a 7.2412589,7.2412589 0 0 1 -2.76993,9.84698 z"
         fill="#ffffff"
         id="path22"
         style="stroke-width:0.425476" />
      <path
         d="m 288.48128,547.1942 -57.88926,32.47124 a 7.2412504,7.2412504 0 0 1 -9.84698,-2.76992 l -26.43492,-47.1278 a 7.2412546,7.2412546 0 0 1 2.7699,-9.84698 l 57.88927,-32.47124 a 7.2412504,7.2412504 0 0 1 9.84698,2.76991 l 26.43494,47.12781 a 7.2412589,7.2412589 0 0 1 -2.76993,9.84698 z m -90.98495,-26.53129 a 6.3893786,6.3893786 0 0 0 -2.44404,8.68851 l 26.43492,47.1278 a 6.3893786,6.3893786 0 0 0 8.68851,2.44405 l 57.88927,-32.47125 a 6.3893786,6.3893786 0 0 0 2.44405,-8.68851 l -26.43493,-47.1278 a 6.3893786,6.3893786 0 0 0 -8.6885,-2.44405 z"
         fill="#3f3d56"
         id="path23"
         style="stroke-width:0.425476" />
      <path
         id="b4188fdd-8694-46fd-b6a9-2365408da1f7-464"
         data-name="Path 411"
         d="m 256.3278,505.29273 -29.21596,16.38782 a 1.1619249,1.1619249 0 0 1 -1.54809,-0.34591 1.1192751,1.1192751 0 0 1 0.39779,-1.57539 l 29.74005,-16.68179 c 1.46265,0.31137 1.47776,1.73762 0.62585,2.21546 z"
         fill="#cccccc"
         style="stroke-width:0.425476" />
      <path
         id="e79bc6ad-6d6d-496e-bd80-f918a84d8140-465"
         data-name="Path 412"
         d="m 259.20233,510.41741 -29.21597,16.38782 a 1.1619249,1.1619249 0 0 1 -1.54809,-0.34591 1.1192709,1.1192709 0 0 1 0.39778,-1.57539 l 29.74006,-16.68178 c 1.46265,0.31136 1.47776,1.73761 0.62584,2.21545 z"
         fill="#cccccc"
         style="stroke-width:0.425476" />
      <path
         id="b0898467-4323-4072-9ee9-29d386bbe07d-466"
         data-name="Path 413"
         d="m 225.30723,533.26573 -8.91642,5.00141 a 1.260261,1.260261 0 0 1 -1.71396,-0.48214 l -5.90206,-10.5221 a 1.260261,1.260261 0 0 1 0.48213,-1.71397 l 8.91642,-5.0014 a 1.2606865,1.2606865 0 0 1 1.71397,0.48213 l 5.90206,10.52214 a 1.260261,1.260261 0 0 1 -0.48213,1.71397 z"
         fill="#cccccc"
         style="stroke-width:0.425476" />
      <path
         id="aea6c33f-bf9b-47d5-9d2e-017fc614339c-467"
         data-name="Path 414"
         d="m 265.00297,520.95787 -44.58891,25.01082 a 1.1619249,1.1619249 0 0 1 -1.54807,-0.34591 1.1192666,1.1192666 0 0 1 0.39778,-1.57539 l 45.11335,-25.30498 c 1.46266,0.31136 1.47777,1.73762 0.62585,2.21546 z"
         fill="#cccccc"
         style="stroke-width:0.425476" />
      <path
         id="b16b06d0-f954-457b-b4c1-332719c9f6d6-468"
         data-name="Path 415"
         d="m 267.87834,526.08406 -44.5889,25.01081 a 1.1619249,1.1619249 0 0 1 -1.54808,-0.34591 1.1192666,1.1192666 0 0 1 0.39778,-1.57539 l 45.11336,-25.30498 c 1.46265,0.31136 1.47776,1.73762 0.62584,2.21546 z"
         fill="#cccccc"
         style="stroke-width:0.425476" />
      <path
         id="b3c0d144-cc2c-4ac0-a007-a1ff15c76ba0-469"
         data-name="Path 416"
         d="m 270.75184,531.20689 -44.58891,25.0108 a 1.1619164,1.1619164 0 0 1 -1.54807,-0.34591 1.1192624,1.1192624 0 0 1 0.39777,-1.57538 l 45.11336,-25.30499 c 1.46265,0.31136 1.47776,1.73762 0.62585,2.21546 z"
         fill="#cccccc"
         style="stroke-width:0.425476" />
      <path
         id="b05e8afe-5132-428a-bb53-4b9505cb52a3-470"
         data-name="Path 417"
         d="m 273.627,536.33268 -44.58891,25.0108 a 1.1619206,1.1619206 0 0 1 -1.54808,-0.34591 1.1192666,1.1192666 0 0 1 0.39779,-1.57538 l 45.11337,-25.30498 c 1.46265,0.31136 1.47776,1.73761 0.62585,2.21545 z"
         fill="#cccccc"
         style="stroke-width:0.425476" />
      <path
         id="a26c59cb-bc72-4a1e-9571-41d1cd64f8ea-471"
         data-name="Path 418"
         d="M 276.50071,541.45589 231.9118,566.4667 a 1.1619249,1.1619249 0 0 1 -1.54808,-0.34592 1.1192624,1.1192624 0 0 1 0.39779,-1.57538 l 45.11335,-25.30498 c 1.46265,0.31136 1.47776,1.73761 0.62585,2.21545 z"
         fill="#cccccc"
         style="stroke-width:0.425476" />
      <path
         d="m 268.72173,560.65471 a 4.0223472,4.0223472 0 0 0 -2.67204,-5.55895 l -1.21261,-14.24255 -5.83176,4.60056 2.04559,12.81966 a 4.0441529,4.0441529 0 0 0 7.67082,2.38128 z"
         fill="#ffb8b8"
         id="path24"
         style="stroke-width:0.425476" />
      <path
         d="m 264.94728,553.60409 -4.84328,0.57764 a 1.8002373,1.8002373 0 0 1 -2.01141,-1.70961 l -0.70633,-16.33926 -9.18064,-25.08008 a 5.1688103,5.1688103 0 0 1 0.27286,-4.9217 6.7555818,6.7555818 0 0 1 0.76926,-0.99266 5.1522763,5.1522763 0 0 1 4.49395,-1.5957 5.372239,5.372239 0 0 1 4.03489,2.8037 l 5.98721,12.54596 a 35.640028,35.640028 0 0 1 3.4439,16.83737 l -0.67516,16.16292 a 1.7989141,1.7989141 0 0 1 -1.56143,1.70828 z"
         fill="#6c63ff"
         id="path25"
         style="fill:#3c6839;fill-opacity:1;stroke-width:0.425476" />
      <polygon
         points="629.682,575.793 645.258,568.956 663.126,609.664 652.572,614.296 "
         fill="#ffb8b8"
         id="polygon25"
         transform="matrix(0.42547637,0,0,0.42547637,0.00313837,364.82251)" />
      <path
         d="m 285.20357,628.07019 -14.47893,6.35544 -0.0804,-0.18313 a 6.1544901,6.1544901 0 0 1 3.16164,-8.1094 l 3.6e-4,-1.6e-4 8.84322,-3.88164 z"
         fill="#2f2e41"
         id="path26"
         style="stroke-width:0.425476" />
      <polygon
         points="504.428,578.02 521.439,578.021 521.437,622.477 509.911,622.477 "
         fill="#ffb8b8"
         id="polygon26"
         transform="matrix(0.42547637,0,0,0.42547637,0.00313837,364.82251)" />
      <path
         d="m 223.11272,634.42563 -15.81236,-5.8e-4 v -0.20001 a 6.1544773,6.1544773 0 0 1 6.15465,-6.15455 h 3.9e-4 l 9.65762,3.9e-4 z"
         fill="#2f2e41"
         id="path27"
         style="stroke-width:0.425476" />
      <path
         d="m 269.60721,623.20542 -27.31834,-60.9635 a 0.60010463,0.60010463 0 0 0 -1.13009,0.0801 l -16.6449,58.88341 a 1.7895876,1.7895876 0 0 1 -1.91613,1.31916 l -9.09052,-0.909 a 1.8104019,1.8104019 0 0 1 -1.61603,-1.93674 c 2.89144,-35.96286 7.44949,-69.90461 21.10432,-92.12397 l 0.0727,-0.11836 20.65412,4.05004 27.57439,87.80713 a 1.8076831,1.8076831 0 0 1 -1.17062,2.23987 l -8.31512,2.67268 a 1.7934595,1.7934595 0 0 1 -2.20373,-1.00079 z"
         fill="#2f2e41"
         id="path28"
         style="stroke-width:0.425476" />
      <circle
         cx="243.05106"
         cy="486.50165"
         r="9.8245087"
         fill="#ffb8b8"
         id="circle28"
         style="stroke-width:0.425476" />
      <path
         d="m 231.72607,529.25565 -0.1253,-0.0258 -0.0295,-0.12423 c -1.32374,-5.58873 -1.35529,-11.68802 -0.0939,-18.12753 a 14.2398,14.2398 0 0 1 14.25669,-11.51965 v 0 a 14.263151,14.263151 0 0 1 13.96342,13.71342 c 0.4212,11.07589 -4.10522,20.67833 -4.15092,20.77404 l -0.0674,0.14062 z"
         fill="#6c63ff"
         id="path29"
         style="fill:#3c6839;fill-opacity:1;stroke-width:0.425476" />
      <path
         d="m 205.38924,547.94629 a 4.0223387,4.0223387 0 0 0 3.22582,-5.25697 l 11.31597,-8.73323 -7.02589,-2.41067 -9.6687,8.66281 a 4.0441529,4.0441529 0 0 0 2.1528,7.73805 z"
         fill="#ffb8b8"
         id="path30"
         style="stroke-width:0.425476" />
      <path
         d="m 211.56996,541.36 a 1.7932723,1.7932723 0 0 1 -2.29816,-0.40533 l -3.10862,-3.75856 a 1.7998544,1.7998544 0 0 1 0.34783,-2.61677 l 13.35266,-9.44299 16.11089,-21.30141 a 5.1684018,5.1684018 0 0 1 4.2854,-2.43609 6.7420347,6.7420347 0 0 1 1.25062,0.10901 v 0 a 5.1506552,5.1506552 0 0 1 3.77545,2.91372 5.3718051,5.3718051 0 0 1 -0.17162,4.91003 l -11.92943,19.3195 -0.0262,0.0422 z"
         fill="#6c63ff"
         id="path31"
         style="fill:#3c6839;fill-opacity:1;stroke-width:0.425476" />
      <path
         d="m 244.80799,485.89203 c -0.7241,-1.19111 -2.32202,-1.52762 -3.70932,-1.39173 -1.38731,0.13589 -2.73644,0.62351 -4.13035,0.61269 -3.87049,-0.03 -6.85813,-4.74733 -5.23084,-8.25925 1.33454,-2.88015 4.66759,-4.14484 7.68272,-5.13744 6.32172,-2.08114 13.58347,-4.08077 19.32008,-0.70635 a 12.004275,12.004275 0 0 1 5.77797,10.69651 c -0.12902,2.6557 -1.1461,5.3836 -0.28592,7.89944 0.99234,2.9024 4.13871,4.45962 7.11212,5.2129 5.21231,1.32049 10.70797,1.10778 15.95286,2.29215 5.24489,1.18437 10.61951,4.32916 12.03332,9.51693 0.92863,3.40754 -0.0404,7.07582 -1.64511,10.22201 a 26.47445,26.47445 0 0 1 -36.9335,10.83315 c -6.34074,-3.70246 -10.91849,-9.95997 -13.64771,-16.77644 a 56.175453,56.175453 0 0 1 -3.24703,-12.33865 c -0.61123,-3.953 -0.0926,-7.9478 1.01452,-11.79152 a 1.0835564,1.0835564 0 0 0 -0.0638,-0.8844 z"
         fill="#2f2e41"
         id="path32"
         style="stroke-width:0.425476" />
      <path
         d="m 280.25074,635 h -80.84051 a 0.42547637,0.42547637 0 0 1 0,-0.85095 h 80.84051 a 0.42547637,0.42547637 0 1 1 0,0.85095 z"
         fill="#cccccc"
         id="path33"
         style="stroke-width:0.425476" />
    </g>
  </g>
</svg>
